SplineFontDB: 3.2
FontName: erfan
FullName: erfan
FamilyName: erfan
Weight: Medium
Copyright: 
Version: 001.000
ItalicAngle: 0
UnderlinePosition: 128
UnderlineWidth: 64
Ascent: 768
Descent: 256
InvalidEm: 0
sfntRevision: 0x00010000
LayerCount: 2
Layer: 0 1 "Back" 1
Layer: 1 1 "Fore" 0
HasVMetrics: 1
XUID: [1021 371 1628949383 718719]
StyleMap: 0x0000
FSType: 0
OS2Version: 4
OS2_WeightWidthSlopeOnly: 0
OS2_UseTypoMetrics: 1
CreationTime: 1581968550
ModificationTime: 1652445188
PfmFamily: 33
TTFWeight: 500
TTFWidth: 5
LineGap: 96
VLineGap: 0
OS2TypoAscent: 768
OS2TypoAOffset: 0
OS2TypoDescent: -256
OS2TypoDOffset: 0
OS2TypoLinegap: 96
OS2WinAscent: 768
OS2WinAOffset: 0
OS2WinDescent: 256
OS2WinDOffset: 0
HheadAscent: 768
HheadAOffset: 0
HheadDescent: -256
HheadDOffset: 0
OS2Vendor: '    '
OS2CodePages: 00000040.00000000
OS2UnicodeRanges: 00002000.00000000.00000000.00000000
MarkAttachClasses: 1
DEI: 91125
ShortTable: maxp 16
  0
  0
  0
  0
  0
  0
  0
  2
  1
  2
  22
  0
  256
  0
  0
  0
EndShort
TtTable: prep
PUSHW_1
 511
SCANCTRL
PUSHB_1
 1
SCANTYPE
SVTCA[y-axis]
MPPEM
PUSHB_1
 8
LT
IF
PUSHB_2
 1
 1
INSTCTRL
EIF
PUSHB_2
 70
 6
CALL
IF
POP
PUSHB_1
 16
EIF
MPPEM
PUSHB_1
 20
GT
IF
POP
PUSHB_1
 128
EIF
SCVTCI
PUSHB_1
 6
CALL
NOT
IF
EIF
PUSHB_1
 20
CALL
EndTTInstrs
TtTable: fpgm
PUSHB_1
 0
FDEF
PUSHB_1
 0
SZP0
MPPEM
PUSHB_1
 42
LT
IF
PUSHB_1
 74
SROUND
EIF
PUSHB_1
 0
SWAP
MIAP[rnd]
RTG
PUSHB_1
 6
CALL
IF
RTDG
EIF
MPPEM
PUSHB_1
 42
LT
IF
RDTG
EIF
DUP
MDRP[rp0,rnd,grey]
PUSHB_1
 1
SZP0
MDAP[no-rnd]
RTG
ENDF
PUSHB_1
 1
FDEF
DUP
MDRP[rp0,min,white]
PUSHB_1
 12
CALL
ENDF
PUSHB_1
 2
FDEF
MPPEM
GT
IF
RCVT
SWAP
EIF
POP
ENDF
PUSHB_1
 3
FDEF
ROUND[Black]
RTG
DUP
PUSHB_1
 64
LT
IF
POP
PUSHB_1
 64
EIF
ENDF
PUSHB_1
 4
FDEF
PUSHB_1
 6
CALL
IF
POP
SWAP
POP
ROFF
IF
MDRP[rp0,min,rnd,black]
ELSE
MDRP[min,rnd,black]
EIF
ELSE
MPPEM
GT
IF
IF
MIRP[rp0,min,rnd,black]
ELSE
MIRP[min,rnd,black]
EIF
ELSE
SWAP
POP
PUSHB_1
 5
CALL
IF
PUSHB_1
 70
SROUND
EIF
IF
MDRP[rp0,min,rnd,black]
ELSE

StartChar: uni0635
Encoding: 145 1589 25
Width: 640
VWidth: 512
GlyphClass: 1
Flags: MW
LayerCount: 2
Fore
SplineSet
384 -64 m 257
 320 -64 l 257
 320 0 l 257
 384 0 l 257
 384 -64 l 257
384 64 m 257
 320 64 l 257
 320 128 l 257
 384 128 l 257
 384 64 l 257
384 0 m 257
 320 0 l 257
 320 64 l 257
 384 64 l 257
 384 0 l 257
EndSplineSet
Refer: 207 -1 S 1 0 0 1 -160 64 2
Refer: 207 -1 N 1 0 0 1 -160 0 2
Refer: 207 -1 N 1 0 0 1 -160 -64 2
Refer: 207 -1 N 1 0 0 1 -96 -128 2
Refer: 207 -1 N 1 0 0 1 -32 -128 2
Refer: 207 -1 N 1 0 0 1 32 -128 2
Refer: 207 -1 N 1 0 0 1 96 -128 2
Refer: 248 -1 N 1 0 0 1 192 0 2
EndChar

StartChar: uni066E
Encoding: 187 1646 50
Width: 448
VWidth: 512
GlyphClass: 1
Flags: MW
LayerCount: 2
Fore
SplineSet
384 64 m 1,0,-1
 384 128 l 1,1,-1
 448 128 l 1,2,-1
 448 64 l 1,3,-1
 384 64 l 1,0,-1
384 64 m 1,4,-1
 384 0 l 1,5,-1
 320 0 l 1,6,-1
 256 0 l 1,7,-1
 192 0 l 1,8,-1
 128 0 l 1,9,-1
 64 0 l 1,10,-1
 64 64 l 1,11,-1
 0 64 l 1,12,-1
 0 128 l 1,13,-1
 64 128 l 1,14,-1
 64 64 l 1,15,-1
 128 64 l 1,16,-1
 192 64 l 1,17,-1
 256 64 l 1,18,-1
 320 64 l 1,19,-1
 384 64 l 1,4,-1
EndSplineSet
Validated: 3077
EndChar

StartChar: uniFB8E
Encoding: 219 64398 80
Width: 576
VWidth: 512
GlyphClass: 1
Flags: W
LayerCount: 2
Fore
SplineSet
128 128 m 257
 64 128 l 257
 64 192 l 257
 128 192 l 257
 128 128 l 257
128 64 m 257
 64 64 l 257
 64 128 l 257
 128 128 l 257
 128 64 l 257
192 0 m 257
 128 0 l 257
 128 64 l 257
 192 64 l 257
 192 0 l 257
256 0 m 257
 192 0 l 257
 192 64 l 257
 256 64 l 257
 256 32 l 0
 256 0 l 257
EndSplineSet
Refer: 207 -1 N 1 0 0 1 288 64 2
Refer: 207 -1 N 1 0 0 1 352 384 2
Refer: 207 -1 N 1 0 0 1 288 320 2
Refer: 207 -1 N 1 0 0 1 96 0 2
Refer: 207 -1 N 1 0 0 1 224 128 2
Refer: 207 -1 N 1 0 0 1 288 128 2
Refer: 207 -1 N 1 0 0 1 224 256 2
Refer: 207 -1 N 1 0 0 1 160 0 2
Refer: 207 -1 N 1 0 0 1 160 192 2
Refer: 207 -1 N 1 0 0 1 224 0 2
EndChar

StartChar: uniFB92
Encoding: 223 64402 84
Width: 576
VWidth: 512
GlyphClass: 1
Flags: MW
LayerCount: 2
Fore
SplineSet
512 512 m 257
 448 512 l 257
 448 576 l 257
 512 576 l 257
 512 512 l 257
448 448 m 257
 384 448 l 257
 384 512 l 257
 448 512 l 257
 448 448 l 257
384 384 m 257
 320 384 l 257
 320 448 l 257
 384 448 l 257
 384 402 l 0
 384 384 l 257
EndSplineSet
Refer: 80 64398 N 1 0 0 1 0 0 2
EndChar

StartChar: uniFB93
Encoding: 224 64403 85
Width: 576
VWidth: 512
GlyphClass: 1
Flags: MW
LayerCount: 2
Fore
SplineSet
512 512 m 257
 448 512 l 257
 448 576 l 257
 512 576 l 257
 512 512 l 257
448 448 m 257
 384 448 l 257
 384 512 l 257
 448 512 l 257
 448 448 l 257
384 384 m 257
 320 384 l 257
 320 448 l 257
 384 448 l 257
 384 402 l 0
 384 384 l 257
EndSplineSet
Refer: 207 -1 S 1 0 0 1 352 0 2
Refer: 80 64398 S 1 0 0 1 0 0 2
Refer: 80 64398 N 1 0 0 1 0 0 2
EndChar

StartChar: uniFB94
Encoding: 225 64404 86
Width: 320
VWidth: 512
GlyphClass: 1
Flags: W
LayerCount: 2
Fore
SplineSet
256 512 m 261
 192 512 l 261
 192 576 l 261
 256 576 l 261
 256 512 l 261
192 448 m 257
 128 448 l 257
 128 512 l 257
 192 512 l 261
 192 448 l 257
128 384 m 257
 64 384 l 257
 64 448 l 257
 128 448 l 257
 128 402 l 0
 128 384 l 257
EndSplineSet
Refer: 82 64400 N 1 0 0 1 0 0 2
EndChar

StartChar: uniFB95
Encoding: 226 64405 87
Width: 320
VWidth: 512
GlyphClass: 1
Flags: W
LayerCount: 2
Fore
SplineSet
256 512 m 257
 192 512 l 257
 192 576 l 257
 256 576 l 257
 256 512 l 257
192 448 m 257
 128 448 l 257
 128 512 l 257
 192 512 l 257
 192 448 l 257
128 384 m 257
 64 384 l 257
 64 448 l 257
 128 448 l 257
 128 402 l 0
 128 384 l 257
EndSplineSet
Refer: 207 -1 S 1 0 0 1 96 0 2
Refer: 82 64400 N 1 0 0 1 0 0 2
EndChar

StartChar: uniFE8E
Encoding: 269 65166 113
Width: 128
VWidth: 512
GlyphClass: 1
UnlinkRmOvrlpSave: 1
Flags: W
LayerCount: 2
Fore
SplineSet
128 64 m 1,0,-1
 64 64 l 1,1,-1
 64 64 l 1,2,-1
 64 128 l 1,3,-1
 64 192 l 1,4,-1
 64 256 l 1,5,-1
 64 320 l 1,6,-1
 128 320 l 1,7,-1
 128 256 l 1,8,-1
 128 192 l 1,9,-1
 128 128 l 1,10,-1
 128 64 l 1,11,-1
 128 64 l 1,0,-1
EndSplineSet
EndChar

StartChar: uniFE8F
Encoding: 270 65167 114
Width: 512
VWidth: 512
GlyphClass: 1
Flags: W
LayerCount: 2
Fore
SplineSet
320 -128 m 257,0,-1
 256 -128 l 257,1,-1
 256 -64 l 257,2,-1
 320 -64 l 257,3,-1
 320 -128 l 257,0,-1
512 128 m 257,4,-1
 448 128 l 257,5,-1
 448 192 l 257,6,-1
 512 192 l 257,7,-1
 512 128 l 257,4,-1
512 64 m 257,8,-1
 448 64 l 257,9,-1
 448 128 l 257,10,-1
 512 128 l 257,11,-1
 512 64 l 257,8,-1
448 0 m 257,12,-1
 384 0 l 257,13,-1
 384 64 l 257,14,-1
 448 64 l 257,15,-1
 448 0 l 257,12,-1
384 0 m 257,16,-1
 320 0 l 257,17,-1
 320 64 l 257,18,-1
 384 64 l 257,19,-1
 384 0 l 257,16,-1
320 0 m 257,20,-1
 256 0 l 257,21,-1
 256 64 l 257,22,-1
 320 64 l 257,23,-1
 320 0 l 257,20,-1
256 0 m 257,24,-1
 192 0 l 257,25,-1
 192 64 l 257,26,-1
 256 64 l 257,27,-1
 256 0 l 257,24,-1
192 0 m 257,28,-1
 128 0 l 257,29,-1
 128 64 l 257,30,-1
 192 64 l 257,31,-1
 192 0 l 257,28,-1
128 128 m 257,32,-1
 64 128 l 257,33,-1
 64 192 l 257,34,-1
 128 192 l 257,35,-1
 128 128 l 257,32,-1
128 64 m 257,36,-1
 64 64 l 257,37,-1
 64 128 l 257,38,-1
 128 128 l 257,39,-1
 128 64 l 257,36,-1
EndSplineSet
EndChar

StartChar: uniFE91
Encoding: 272 65169 116
Width: 256
VWidth: 512
GlyphClass: 1
Flags: W
LayerCount: 2
Fore
SplineSet
192 -128 m 257
 128 -128 l 257
 128 -64 l 257
 192 -64 l 257
 192 -128 l 257
EndSplineSet
Refer: 380 -1 N 1 0 0 1 0 0 2
EndChar

StartChar: uniFE92
Encoding: 273 65170 117
Width: 256
VWidth: 512
GlyphClass: 1
Flags: W
LayerCount: 2
Fore
SplineSet
192 -128 m 261
 128 -128 l 261
 128 -64 l 261
 192 -64 l 261
 192 -128 l 261
EndSplineSet
Refer: 380 -1 N 1 0 0 1 0 0 2
EndChar

StartChar: uniFEB9
Encoding: 312 65209 154
Width: 704
VWidth: 512
GlyphClass: 1
UnlinkRmOvrlpSave: 1
Flags: MW
LayerCount: 2
Fore
SplineSet
640 192 m 1,0,-1
 704 192 l 1,1,-1
 704 128 l 1,2,-1
 704 64 l 1,3,-1
 640 64 l 1,4,-1
 640 0 l 1,5,-1
 576 0 l 1,6,-1
 512 0 l 1,7,-1
 448 0 l 1,8,-1
 448 -64 l 1,9,-1
 384 -64 l 1,10,-1
 384 -128 l 1,11,-1
 320 -128 l 1,12,-1
 256 -128 l 1,13,-1
 192 -128 l 1,14,-1
 128 -128 l 1,15,-1
 128 -64 l 1,16,-1
 192 -64 l 1,17,-1
 256 -64 l 1,18,-1
 320 -64 l 1,19,-1
 384 -64 l 1,20,-1
 384 0 l 1,21,-1
 384 64 l 1,22,-1
 384 128 l 1,23,-1
 448 128 l 1,24,-1
 448 64 l 1,25,-1
 512 64 l 1,26,-1
 512 128 l 1,27,-1
 576 128 l 1,28,-1
 576 64 l 1,29,-1
 640 64 l 1,30,-1
 640 128 l 1,31,-1
 576 128 l 1,32,-1
 576 192 l 1,33,-1
 640 192 l 1,0,-1
128 -64 m 1,34,-1
 64 -64 l 1,35,-1
 64 0 l 1,36,-1
 64 64 l 1,37,-1
 64 128 l 1,38,-1
 128 128 l 1,39,-1
 128 64 l 1,40,-1
 128 0 l 1,41,-1
 128 -64 l 1,34,-1
EndSplineSet
EndChar

StartChar: uniFECB
Encoding: 330 65227 172
Width: 256
VWidth: 512
GlyphClass: 1
Flags: MW
LayerCount: 2
Fore
SplineSet
64 0 m 257
 0 0 l 257
 0 64 l 257
 64 64 l 257
 64 0 l 257
EndSplineSet
Refer: 383 -1 N 1 0 0 1 64 0 2
EndChar

StartChar: uniFEE3
Encoding: 354 65251 195
Width: 256
VWidth: 512
GlyphClass: 1
UnlinkRmOvrlpSave: 1
Flags: MW
LayerCount: 2
Fore
SplineSet
192 64 m 1029
-64 -128 m 1025
64 64 m 1025
EndSplineSet
Refer: 207 -1 S 1 0 0 1 -32 64 2
Refer: 207 -1 N 1 0 0 1 -96 64 2
Refer: 207 -1 S 1 0 0 1 -32 -64 2
Refer: 207 -1 S 1 0 0 1 32 0 2
Refer: 207 -1 N 1 0 0 1 -160 0 2
Refer: 207 -1 N 1 0 0 1 -96 0 2
EndChar

StartChar: uniFEE5
Encoding: 356 65253 197
Width: 384
VWidth: 512
GlyphClass: 1
Flags: W
LayerCount: 2
Fore
SplineSet
256 128 m 257,0,-1
 192 128 l 257,1,-1
 192 192 l 257,2,-1
 256 192 l 257,3,-1
 256 128 l 257,0,-1
384 64 m 257,4,-1
 320 64 l 257,5,-1
 320 128 l 257,6,-1
 384 128 l 257,7,-1
 384 64 l 257,4,-1
384 0 m 257,8,-1
 320 0 l 257,9,-1
 320 64 l 257,10,-1
 384 64 l 257,11,-1
 384 0 l 257,8,-1
384 -64 m 257,12,-1
 320 -64 l 257,13,-1
 320 0 l 257,14,-1
 384 0 l 257,15,-1
 384 -64 l 257,12,-1
384 -128 m 257,16,-1
 320 -128 l 257,17,-1
 320 -64 l 257,18,-1
 384 -64 l 257,19,-1
 384 -128 l 257,16,-1
320 -192 m 257,20,-1
 256 -192 l 257,21,-1
 256 -128 l 257,22,-1
 320 -128 l 257,23,-1
 320 -192 l 257,20,-1
256 -192 m 257,24,-1
 192 -192 l 257,25,-1
 192 -128 l 257,26,-1
 256 -128 l 257,27,-1
 256 -192 l 257,24,-1
192 -192 m 257,28,-1
 128 -192 l 257,29,-1
 128 -128 l 257,30,-1
 192 -128 l 257,31,-1
 192 -192 l 257,28,-1
128 -128 m 257,32,-1
 64 -128 l 257,33,-1
 64 -64 l 257,34,-1
 128 -64 l 257,35,-1
 128 -128 l 257,32,-1
128 -64 m 257,36,-1
 64 -64 l 257,37,-1
 64 0 l 257,38,-1
 128 0 l 257,39,-1
 128 -64 l 257,36,-1
128 0 m 257,40,-1
 64 0 l 257,41,-1
 64 64 l 257,42,-1
 128 64 l 257,43,-1
 128 0 l 257,40,-1
EndSplineSet
EndChar

StartChar: uniFEE6
Encoding: 357 65254 198
Width: 384
VWidth: 512
GlyphClass: 1
UnlinkRmOvrlpSave: 1
Flags: W
LayerCount: 2
Fore
SplineSet
256 128 m 257,0,-1
 192 128 l 257,1,-1
 192 192 l 257,2,-1
 256 192 l 257,3,-1
 256 128 l 257,0,-1
384 64 m 257,4,-1
 320 64 l 257,5,-1
 320 128 l 257,6,-1
 384 128 l 257,7,-1
 384 64 l 257,4,-1
384 0 m 257,8,-1
 320 0 l 257,9,-1
 320 64 l 257,10,-1
 384 64 l 257,11,-1
 384 0 l 257,8,-1
384 -64 m 257,12,-1
 320 -64 l 257,13,-1
 320 0 l 257,14,-1
 384 0 l 257,15,-1
 384 -64 l 257,12,-1
384 -128 m 257,16,-1
 320 -128 l 257,17,-1
 320 -64 l 257,18,-1
 384 -64 l 257,19,-1
 384 -128 l 257,16,-1
320 -192 m 257,20,-1
 256 -192 l 257,21,-1
 256 -128 l 257,22,-1
 320 -128 l 257,23,-1
 320 -192 l 257,20,-1
256 -192 m 257,24,-1
 192 -192 l 257,25,-1
 192 -128 l 257,26,-1
 256 -128 l 257,27,-1
 256 -192 l 257,24,-1
192 -192 m 257,28,-1
 128 -192 l 257,29,-1
 128 -128 l 257,30,-1
 192 -128 l 257,31,-1
 192 -192 l 257,28,-1
128 -128 m 257,32,-1
 64 -128 l 257,33,-1
 64 -64 l 257,34,-1
 128 -64 l 257,35,-1
 128 -128 l 257,32,-1
128 -64 m 257,36,-1
 64 -64 l 257,37,-1
 64 0 l 257,38,-1
 128 0 l 257,39,-1
 128 -64 l 257,36,-1
128 0 m 257,40,-1
 64 0 l 257,41,-1
 64 64 l 257,42,-1
 128 64 l 257,43,-1
 128 0 l 257,40,-1
EndSplineSet
EndChar

StartChar: uniFEED
Encoding: 364 65261 205
Width: 255
VWidth: 512
GlyphClass: 1
UnlinkRmOvrlpSave: 1
Flags: W
LayerCount: 2
Fore
SplineSet
256 128 m 261,0,-1
 192 128 l 261,1,-1
 192 192 l 261,2,-1
 256 192 l 261,3,-1
 256 128 l 261,0,-1
192 0 m 261,4,-1
 128 0 l 261,5,-1
 128 64 l 261,6,-1
 192 64 l 261,7,-1
 192 0 l 261,4,-1
192 128 m 261,8,-1
 128 128 l 261,9,-1
 128 192 l 261,10,-1
 192 192 l 261,11,-1
 192 128 l 261,8,-1
256 64 m 261,12,-1
 192 64 l 261,13,-1
 192 128 l 261,14,-1
 256 128 l 261,15,-1
 256 64 l 261,12,-1
256 0 m 261,16,-1
 192 0 l 261,17,-1
 192 64 l 261,18,-1
 256 64 l 261,19,-1
 256 0 l 261,16,-1
256 -64 m 261,20,-1
 192 -64 l 261,21,-1
 192 0 l 261,22,-1
 256 0 l 261,23,-1
 256 -64 l 261,20,-1
192 -128 m 261,24,-1
 128 -128 l 261,25,-1
 128 -64 l 261,26,-1
 192 -64 l 261,27,-1
 192 -128 l 261,24,-1
128 -128 m 261,28,-1
 64 -128 l 261,29,-1
 64 -64 l 261,30,-1
 128 -64 l 261,31,-1
 128 -128 l 261,28,-1
128 64 m 261,32,-1
 64 64 l 261,33,-1
 64 128 l 261,34,-1
 128 128 l 261,35,-1
 128 64 l 261,32,-1
EndSplineSet
EndChar

StartChar: Noqte
Encoding: 368 -1 207
Width: 448
VWidth: 512
GlyphClass: 1
Flags: MW
LayerCount: 2
Fore
SplineSet
224 0 m 261,0,-1
 160 0 l 261,1,-1
 160 64 l 261,2,-1
 224 64 l 261,3,-1
 224 0 l 261,0,-1
EndSplineSet
Validated: 3073
EndChar

StartChar: NameMe.225
Encoding: 370 -1 209
Width: 64
VWidth: 512
GlyphClass: 1
UnlinkRmOvrlpSave: 1
Flags: W
LayerCount: 2
Fore
SplineSet
64 0 m 5,0,-1
 0 0 l 5,1,-1
 0 64 l 1,2,-1
 0 128 l 1,3,-1
 0 192 l 1,4,-1
 0 256 l 1,5,-1
 0 320 l 1,6,-1
 64 320 l 1,7,-1
 64 256 l 1,8,-1
 64 192 l 1,9,-1
 64 128 l 1,10,-1
 64 64 l 1,11,-1
 64 0 l 5,0,-1
EndSplineSet
EndChar

StartChar: Noqte4x
Encoding: 371 -1 210
Width: 448
VWidth: 512
GlyphClass: 1
Flags: MW
LayerCount: 2
Fore
SplineSet
192 0 m 1,0,-1
 160 0 l 1,1,-1
 160 32 l 1,2,-1
 192 32 l 1,3,-1
 192 0 l 1,0,-1
EndSplineSet
Validated: 3073
EndChar

StartChar: uniFE84
Encoding: 260 65156 222
Width: 192
VWidth: 512
Flags: MW
LayerCount: 2
Fore
SplineSet
192 0 m 261
 128 0 l 261
 128 64 l 261
 192 64 l 261
 192 0 l 261
EndSplineSet
Refer: 113 65166 N 1 0 0 1 0 0 2
Refer: 105 65152 N 1 0 0 1 -64 384 2
EndChar

StartChar: uniFE70
Encoding: 241 65136 234
Width: 448
VWidth: 512
Flags: W
LayerCount: 2
Fore
SplineSet
272 256 m 1,0,-1
 112 256 l 1,1,-1
 112 432 l 1,2,-1
 272 432 l 1,3,-1
 272 256 l 1,0,-1
EndSplineSet
Validated: 3073
EndChar

StartChar: uniFE71
Encoding: 242 65137 235
Width: 448
VWidth: 512
Flags: W
LayerCount: 2
Fore
SplineSet
272 256 m 1,0,-1
 112 256 l 1,1,-1
 112 432 l 1,2,-1
 272 432 l 1,3,-1
 272 256 l 1,0,-1
EndSplineSet
Validated: 3073
EndChar

StartChar: uniFE72
Encoding: 243 65138 236
Width: 448
VWidth: 512
Flags: W
LayerCount: 2
Fore
SplineSet
272 256 m 1,0,-1
 112 256 l 1,1,-1
 112 432 l 1,2,-1
 272 432 l 1,3,-1
 272 256 l 1,0,-1
EndSplineSet
Validated: 3073
EndChar

StartChar: uniFE73
Encoding: 244 65139 237
Width: 448
VWidth: 512
Flags: W
LayerCount: 2
Fore
SplineSet
272 256 m 1,0,-1
 112 256 l 1,1,-1
 112 432 l 1,2,-1
 272 432 l 1,3,-1
 272 256 l 1,0,-1
EndSplineSet
Validated: 3073
EndChar

StartChar: NameMe.279.1
Encoding: 377 -1 247
Width: 64
VWidth: 512
Flags: W
LayerCount: 2
Fore
SplineSet
0 0 m 1,0,-1
 0 48 l 1,1,-1
 48 48 l 5,2,-1
 48 0 l 1,3,-1
 0 0 l 1,0,-1
EndSplineSet
Validated: 3073
EndChar

StartChar: NameMe.380
Encoding: 380 -1 380
Width: 256
VWidth: 512
Flags: W
LayerCount: 2
Fore
SplineSet
256 128 m 257,0,-1
 192 128 l 257,1,-1
 192 192 l 257,2,-1
 256 192 l 257,3,-1
 256 128 l 257,0,-1
256 64 m 257,4,-1
 192 64 l 257,5,-1
 192 128 l 257,6,-1
 256 128 l 257,7,-1
 256 64 l 257,4,-1
192 0 m 257,8,-1
 128 0 l 257,9,-1
 128 64 l 257,10,-1
 192 64 l 257,11,-1
 192 0 l 257,8,-1
128 0 m 257,12,-1
 64 0 l 257,13,-1
 64 64 l 257,14,-1
 128 64 l 257,15,-1
 128 0 l 257,12,-1
64 0 m 257,16,-1
 0 0 l 257,17,-1
 0 64 l 257,18,-1
 64 64 l 257,19,-1
 64 0 l 257,16,-1
EndSplineSet
EndChar

StartChar: NameMe.381
Encoding: 381 -1 381
Width: 512
VWidth: 512
Flags: W
LayerCount: 2
Fore
SplineSet
512 128 m 257,0,-1
 448 128 l 257,1,-1
 448 192 l 257,2,-1
 512 192 l 257,3,-1
 512 128 l 257,0,-1
512 64 m 257,4,-1
 448 64 l 257,5,-1
 448 128 l 257,6,-1
 512 128 l 257,7,-1
 512 64 l 257,4,-1
448 0 m 257,8,-1
 384 0 l 257,9,-1
 384 64 l 257,10,-1
 448 64 l 257,11,-1
 448 0 l 257,8,-1
384 0 m 257,12,-1
 320 0 l 257,13,-1
 320 64 l 257,14,-1
 384 64 l 257,15,-1
 384 0 l 257,12,-1
320 0 m 257,16,-1
 256 0 l 257,17,-1
 256 64 l 257,18,-1
 320 64 l 257,19,-1
 320 0 l 257,16,-1
256 0 m 257,20,-1
 192 0 l 257,21,-1
 192 64 l 257,22,-1
 256 64 l 257,23,-1
 256 0 l 257,20,-1
192 0 m 257,24,-1
 128 0 l 257,25,-1
 128 64 l 257,26,-1
 192 64 l 257,27,-1
 192 0 l 257,24,-1
128 128 m 257,28,-1
 64 128 l 257,29,-1
 64 192 l 257,30,-1
 128 192 l 257,31,-1
 128 128 l 257,28,-1
128 64 m 257,32,-1
 64 64 l 257,33,-1
 64 128 l 257,34,-1
 128 128 l 257,35,-1
 128 64 l 257,32,-1
EndSplineSet
EndChar

